<svg xmlns="http://www.w3.org/2000/svg" viewBox="0 0 3436.13 1672.45" preserveAspectRatio="xMidYMid slice"><defs><style>.cls-2,.cls-4{fill:#43c5f9}.cls-3{fill:#024f7d;opacity:.58}.cls-4{opacity:.15}</style></defs><g id="Layer_13" data-name="Layer 13"><path fill="#0978b9" d="M0 0v1672.45h3436.13V0H0z"/><path class="cls-2" d="M.86 0v836.23h858.82V0H.86z"/><path class="cls-3" d="M.86 835.44v836.23h858.82V835.44H.86z"/><path class="cls-4" d="M.86 835.44l858.82 836.23V835.44H.86z"/><path class="cls-4" d="M859.68 0v836.23h858.82V0H859.68z"/><path class="cls-3" d="M859.68 0v836.23h858.82L859.68 0zM1719.5 835.44v836.23h858.81L1719.5 835.44z"/><path class="cls-4" d="M859.68 835.44v836.23h858.82V835.44H859.68z"/><path class="cls-2" d="M859.68 835.44v836.23l858.82-836.23H859.68z"/><path class="cls-3" d="M1718.5 0v836.23h858.81V0H1718.5z"/><path class="cls-2" d="M1718.5 836.23h858.81V0L1718.5 836.23z"/><path class="cls-4" d="M2577.31 0v836.23h858.82V0H2577.31z"/><path class="cls-3" d="M2577.31 0v836.23h858.82L2577.31 0z"/><path class="cls-2" d="M2577.31 835.44v836.23h858.82V835.44H2577.31z"/><path fill="#055d99" opacity=".69" d="M2577.31 835.44v836.23l858.82-836.23H2577.31z"/></g></svg>